<?xml version="1.0" encoding="UTF-8"?>
<svg width="752pt" height="752pt" version="1.1" viewBox="0 0 752 752" xmlns="http://www.w3.org/2000/svg">
 <path d="m472.57 491.71c-9.6133 5.6875-20.312 9.2969-31.406 10.594-4.4219 0.61328-8.9141 0.43359-13.273-0.52734-41.066-8.9727-81.016-32.902-112.87-64.77-31.855-31.871-55.793-71.809-64.793-112.86-0.96484-4.3594-1.1445-8.8555-0.52734-13.281 1.2969-11.094 4.9062-21.793 10.594-31.406 5.543-9.0742 13.152-16.711 22.203-22.293 0.85937-0.57812 1.8125-1 2.8164-1.25 2.8398-0.70703 7.1758-1.7734 13.016-3.1992 5.7383-1.3945 9.8398-2.3867 12.344-2.9922 3.6094-0.84375 7.4023-0.30469 10.637 1.5078 3.2344 1.8086 5.6719 4.7656 6.8398 8.2852l17.449 52.258c0.91406 2.7109 1.0234 5.6328 0.30469 8.4062-0.71484 2.7734-2.2227 5.2812-4.3398 7.2109l-16.406 15.023c-0.78125 0.69922-1.3164 1.6328-1.5273 2.6602-0.1875 1.0273-0.03125 2.0898 0.4375 3.0234 5.6172 11.621 19.672 28.68 35.395 44.41 15.723 15.734 32.793 29.789 44.41 35.395 1.9219 0.98828 4.2656 0.53516 5.6836-1.0938l15.023-16.371c1.9336-2.1172 4.4375-3.625 7.2109-4.3398 2.7734-0.71875 5.6953-0.60938 8.4102 0.30469l52.258 17.449c3.5195 1.1641 6.4805 3.6016 8.2969 6.8359s2.3555 7.0312 1.5117 10.641c-0.58984 2.4922-1.5859 6.6055-2.9922 12.344-1.4258 5.8516-2.4922 10.191-3.1992 13.016-0.22656 0.90625-0.59375 1.7695-1.0859 2.5625-3.7969 5.1602-7.8828 10.105-12.238 14.805-3.1523 2.875-6.5742 5.4375-10.219 7.6523zm34.508-14.262-1.625 1.9375-10.035 11.965 20.102 11.605h-0.003906c9.2578 5.4453 20.316 6.9375 30.684 4.1445 10.371-2.793 19.184-9.6367 24.453-18.996 9.7188-16.918 17.168-35.043 22.152-53.906 5.0117-18.996 7.543-38.559 7.5273-58.203h-0.035156c0.019531-49.188-16.117-97.023-45.93-136.15-29.812-39.125-71.652-67.379-119.08-80.414-47.434-13.035-97.836-10.133-143.46 8.2617-45.621 18.395-83.938 51.262-109.06 93.555-25.125 42.289-35.664 91.66-29.996 140.52 5.6641 48.863 27.219 94.516 61.355 129.94 34.133 35.418 78.953 58.648 127.57 66.117 48.621 7.4688 98.348-1.2383 141.54-24.781 4.3359-2.3633 5.9375-7.7891 3.5781-12.129-2.3633-4.3359-7.7891-5.9375-12.125-3.5742-39.715 21.613-85.422 29.59-130.11 22.707-44.684-6.8867-85.875-28.254-117.24-60.82-31.363-32.566-51.164-74.527-56.367-119.44-5.1992-44.914 4.4922-90.289 27.586-129.16 23.09-38.871 58.309-69.086 100.24-86 41.93-16.91 88.254-19.59 131.86-7.6211 43.598 11.969 82.062 37.922 109.48 73.871 27.418 35.949 42.273 79.91 42.285 125.12h-0.035157c0.027344 18.105-2.293 36.137-6.8984 53.645-4.5703 17.336-11.402 33.996-20.324 49.547-2.9258 5.2344-7.8398 9.0625-13.629 10.621-5.7891 1.5547-11.961 0.70312-17.113-2.3594z" fill-rule="evenodd"/>
</svg>
